<svg width="195" height="23" viewBox="0 0 195 23" fill="none" xmlns="http://www.w3.org/2000/svg">
<path d="M0.113636 18V0.545454H10.6477V2.42045H2.22727V8.31818H10.1023V10.1932H2.22727V16.125H10.7841V18H0.113636ZM15.6847 4.90909L18.821 10.2614L21.9574 4.90909H24.2756L20.0483 11.4545L24.2756 18H21.9574L18.821 12.9205L15.6847 18H13.3665L17.5256 11.4545L13.3665 4.90909H15.6847ZM27.1456 22.9091V4.90909H29.0888V6.98864H29.3274C29.4751 6.76136 29.6797 6.47159 29.9411 6.11932C30.2081 5.76136 30.5888 5.44318 31.0831 5.16477C31.5831 4.88068 32.2592 4.73864 33.1115 4.73864C34.2138 4.73864 35.1854 5.0142 36.0263 5.56534C36.8672 6.11648 37.5234 6.89773 37.995 7.90909C38.4666 8.92045 38.7024 10.1136 38.7024 11.4886C38.7024 12.875 38.4666 14.0767 37.995 15.0938C37.5234 16.1051 36.87 16.8892 36.0348 17.446C35.1996 17.9972 34.2365 18.2727 33.1456 18.2727C32.3047 18.2727 31.6314 18.1335 31.1257 17.8551C30.62 17.571 30.2308 17.25 29.9581 16.892C29.6854 16.5284 29.4751 16.2273 29.3274 15.9886H29.157V22.9091H27.1456ZM29.1229 11.4545C29.1229 12.4432 29.2678 13.3153 29.5575 14.071C29.8473 14.821 30.2706 15.4091 30.8274 15.8352C31.3842 16.2557 32.0661 16.4659 32.8729 16.4659C33.7138 16.4659 34.4155 16.2443 34.978 15.8011C35.5462 15.3523 35.9723 14.75 36.2564 13.9943C36.5462 13.233 36.6911 12.3864 36.6911 11.4545C36.6911 10.5341 36.549 9.70455 36.2649 8.96591C35.9865 8.22159 35.5632 7.63352 34.995 7.2017C34.4325 6.7642 33.7251 6.54545 32.8729 6.54545C32.0547 6.54545 31.3672 6.75284 30.8104 7.16761C30.2536 7.5767 29.8331 8.15057 29.549 8.8892C29.2649 9.62216 29.1229 10.4773 29.1229 11.4545ZM43.782 0.545454V18H41.7706V0.545454H43.782ZM52.7841 18.2727C51.6023 18.2727 50.5653 17.9915 49.6733 17.429C48.7869 16.8665 48.0938 16.0795 47.5938 15.0682C47.0994 14.0568 46.8523 12.875 46.8523 11.5227C46.8523 10.1591 47.0994 8.96875 47.5938 7.9517C48.0938 6.93466 48.7869 6.14489 49.6733 5.58239C50.5653 5.01989 51.6023 4.73864 52.7841 4.73864C53.9659 4.73864 55 5.01989 55.8864 5.58239C56.7784 6.14489 57.4716 6.93466 57.9659 7.9517C58.4659 8.96875 58.7159 10.1591 58.7159 11.5227C58.7159 12.875 58.4659 14.0568 57.9659 15.0682C57.4716 16.0795 56.7784 16.8665 55.8864 17.429C55 17.9915 53.9659 18.2727 52.7841 18.2727ZM52.7841 16.4659C53.6818 16.4659 54.4205 16.2358 55 15.7756C55.5795 15.3153 56.0085 14.7102 56.2869 13.9602C56.5653 13.2102 56.7045 12.3977 56.7045 11.5227C56.7045 10.6477 56.5653 9.83239 56.2869 9.0767C56.0085 8.32102 55.5795 7.71023 55 7.24432C54.4205 6.77841 53.6818 6.54545 52.7841 6.54545C51.8864 6.54545 51.1477 6.77841 50.5682 7.24432C49.9886 7.71023 49.5597 8.32102 49.2812 9.0767C49.0028 9.83239 48.8636 10.6477 48.8636 11.5227C48.8636 12.3977 49.0028 13.2102 49.2812 13.9602C49.5597 14.7102 49.9886 15.3153 50.5682 15.7756C51.1477 16.2358 51.8864 16.4659 52.7841 16.4659ZM61.7862 18V4.90909H63.7294V6.88636H63.8658C64.1044 6.23864 64.5362 5.71307 65.1612 5.30966C65.7862 4.90625 66.4908 4.70454 67.2749 4.70454C67.4226 4.70454 67.6072 4.70739 67.8288 4.71307C68.0504 4.71875 68.218 4.72727 68.3317 4.73864V6.78409C68.2635 6.76705 68.1072 6.74148 67.8629 6.70739C67.6243 6.66761 67.3714 6.64773 67.1044 6.64773C66.468 6.64773 65.8999 6.78125 65.3999 7.0483C64.9055 7.30966 64.5135 7.6733 64.2237 8.1392C63.9396 8.59943 63.7976 9.125 63.7976 9.71591V18H61.7862ZM75.8061 18.2727C74.5447 18.2727 73.4567 17.9943 72.5419 17.4375C71.6328 16.875 70.9311 16.0909 70.4368 15.0852C69.9482 14.0739 69.7038 12.8977 69.7038 11.5568C69.7038 10.2159 69.9482 9.03409 70.4368 8.01136C70.9311 6.98295 71.6186 6.18182 72.4993 5.60795C73.3857 5.02841 74.4197 4.73864 75.6016 4.73864C76.2834 4.73864 76.9567 4.85227 77.6214 5.07954C78.2862 5.30682 78.8913 5.67614 79.4368 6.1875C79.9822 6.69318 80.4169 7.36364 80.7408 8.19886C81.0646 9.03409 81.2266 10.0625 81.2266 11.2841V12.1364H71.1357V10.3977H79.1811C79.1811 9.65909 79.0334 9 78.7379 8.42045C78.4482 7.84091 78.0334 7.38352 77.4936 7.0483C76.9595 6.71307 76.3288 6.54545 75.6016 6.54545C74.8004 6.54545 74.1072 6.74432 73.522 7.14205C72.9425 7.53409 72.4964 8.04545 72.1839 8.67614C71.8714 9.30682 71.7152 9.98295 71.7152 10.7045V11.8636C71.7152 12.8523 71.8857 13.6903 72.2266 14.3778C72.5732 15.0597 73.0533 15.5795 73.6669 15.9375C74.2805 16.2898 74.9936 16.4659 75.8061 16.4659C76.3345 16.4659 76.8118 16.392 77.2379 16.2443C77.6697 16.0909 78.0419 15.8636 78.3544 15.5625C78.6669 15.2557 78.9084 14.875 79.0788 14.4205L81.022 14.9659C80.8175 15.625 80.4737 16.2045 79.9908 16.7045C79.5078 17.1989 78.9112 17.5852 78.201 17.8636C77.4908 18.1364 76.6925 18.2727 75.8061 18.2727Z" fill="black"/>
<path d="M98.3999 0.545454V18H96.3544L86.843 4.29545H86.6726V18H84.5589V0.545454H86.6044L96.1499 14.2841H96.3203V0.545454H98.3999ZM107.845 18.2727C106.584 18.2727 105.496 17.9943 104.581 17.4375C103.672 16.875 102.97 16.0909 102.476 15.0852C101.987 14.0739 101.743 12.8977 101.743 11.5568C101.743 10.2159 101.987 9.03409 102.476 8.01136C102.97 6.98295 103.658 6.18182 104.538 5.60795C105.425 5.02841 106.459 4.73864 107.641 4.73864C108.322 4.73864 108.996 4.85227 109.661 5.07954C110.325 5.30682 110.93 5.67614 111.476 6.1875C112.021 6.69318 112.456 7.36364 112.78 8.19886C113.104 9.03409 113.266 10.0625 113.266 11.2841V12.1364H103.175V10.3977H111.22C111.22 9.65909 111.072 9 110.777 8.42045C110.487 7.84091 110.072 7.38352 109.533 7.0483C108.999 6.71307 108.368 6.54545 107.641 6.54545C106.839 6.54545 106.146 6.74432 105.561 7.14205C104.982 7.53409 104.536 8.04545 104.223 8.67614C103.911 9.30682 103.754 9.98295 103.754 10.7045V11.8636C103.754 12.8523 103.925 13.6903 104.266 14.3778C104.612 15.0597 105.092 15.5795 105.706 15.9375C106.32 16.2898 107.033 16.4659 107.845 16.4659C108.374 16.4659 108.851 16.392 109.277 16.2443C109.709 16.0909 110.081 15.8636 110.393 15.5625C110.706 15.2557 110.947 14.875 111.118 14.4205L113.061 14.9659C112.857 15.625 112.513 16.2045 112.03 16.7045C111.547 17.1989 110.95 17.5852 110.24 17.8636C109.53 18.1364 108.732 18.2727 107.845 18.2727ZM119.291 18L115.303 4.90909H117.416L120.246 14.9318H120.382L123.178 4.90909H125.325L128.087 14.8977H128.223L131.053 4.90909H133.166L129.178 18H127.2L124.337 7.94318H124.132L121.268 18H119.291ZM136.098 18V0.545454H141.996C143.365 0.545454 144.484 0.792613 145.354 1.28693C146.229 1.77557 146.876 2.4375 147.297 3.27273C147.717 4.10795 147.928 5.03977 147.928 6.06818C147.928 7.09659 147.717 8.03125 147.297 8.87216C146.882 9.71307 146.24 10.3835 145.371 10.8835C144.501 11.3778 143.388 11.625 142.03 11.625H137.803V9.75H141.962C142.899 9.75 143.652 9.58807 144.22 9.2642C144.788 8.94034 145.2 8.50284 145.456 7.9517C145.717 7.39489 145.848 6.76705 145.848 6.06818C145.848 5.36932 145.717 4.74432 145.456 4.19318C145.2 3.64205 144.786 3.21023 144.212 2.89773C143.638 2.57955 142.876 2.42045 141.928 2.42045H138.212V18H136.098ZM153.071 0.545454V18H151.06V0.545454H153.071ZM160.607 18.3068C159.778 18.3068 159.025 18.1506 158.349 17.8381C157.673 17.5199 157.136 17.0625 156.738 16.4659C156.34 15.8636 156.141 15.1364 156.141 14.2841C156.141 13.5341 156.289 12.9261 156.585 12.4602C156.88 11.9886 157.275 11.6193 157.769 11.3523C158.263 11.0852 158.809 10.8864 159.406 10.7557C160.008 10.6193 160.613 10.5114 161.221 10.4318C162.016 10.3295 162.661 10.2528 163.156 10.2017C163.656 10.1449 164.019 10.0511 164.246 9.92045C164.479 9.78977 164.596 9.5625 164.596 9.23864V9.17045C164.596 8.32955 164.366 7.67614 163.906 7.21023C163.451 6.74432 162.761 6.51136 161.835 6.51136C160.874 6.51136 160.121 6.72159 159.576 7.14205C159.031 7.5625 158.647 8.01136 158.425 8.48864L156.516 7.80682C156.857 7.01136 157.312 6.39205 157.88 5.94886C158.454 5.5 159.079 5.1875 159.755 5.01136C160.437 4.82955 161.107 4.73864 161.766 4.73864C162.187 4.73864 162.67 4.78977 163.215 4.89204C163.766 4.98864 164.298 5.19034 164.809 5.49716C165.326 5.80398 165.755 6.26705 166.096 6.88636C166.437 7.50568 166.607 8.33523 166.607 9.375V18H164.596V16.2273H164.494C164.357 16.5114 164.13 16.8153 163.812 17.1392C163.494 17.4631 163.07 17.7386 162.542 17.9659C162.013 18.1932 161.369 18.3068 160.607 18.3068ZM160.914 16.5C161.71 16.5 162.38 16.3438 162.925 16.0312C163.477 15.7188 163.891 15.3153 164.17 14.821C164.454 14.3267 164.596 13.8068 164.596 13.2614V11.4205C164.511 11.5227 164.323 11.6165 164.033 11.7017C163.749 11.7812 163.42 11.8523 163.045 11.9148C162.675 11.9716 162.315 12.0227 161.962 12.0682C161.616 12.108 161.335 12.142 161.119 12.1705C160.596 12.2386 160.107 12.3494 159.653 12.5028C159.204 12.6506 158.84 12.875 158.562 13.1761C158.289 13.4716 158.153 13.875 158.153 14.3864C158.153 15.0852 158.411 15.6136 158.928 15.9716C159.451 16.3239 160.113 16.5 160.914 16.5ZM175.597 18.2727C174.369 18.2727 173.313 17.983 172.426 17.4034C171.54 16.8239 170.858 16.0256 170.381 15.0085C169.903 13.9915 169.665 12.8295 169.665 11.5227C169.665 10.1932 169.909 9.01989 170.398 8.00284C170.892 6.98011 171.58 6.18182 172.46 5.60795C173.347 5.02841 174.381 4.73864 175.562 4.73864C176.483 4.73864 177.312 4.90909 178.051 5.25C178.79 5.59091 179.395 6.06818 179.866 6.68182C180.338 7.29545 180.631 8.01136 180.744 8.82955H178.733C178.58 8.23295 178.239 7.70455 177.71 7.24432C177.188 6.77841 176.483 6.54545 175.597 6.54545C174.813 6.54545 174.125 6.75 173.534 7.15909C172.949 7.5625 172.491 8.13352 172.162 8.87216C171.838 9.60511 171.676 10.4659 171.676 11.4545C171.676 12.4659 171.835 13.3466 172.153 14.0966C172.477 14.8466 172.932 15.429 173.517 15.8438C174.108 16.2585 174.801 16.4659 175.597 16.4659C176.119 16.4659 176.594 16.375 177.02 16.1932C177.446 16.0114 177.807 15.75 178.102 15.4091C178.398 15.0682 178.608 14.6591 178.733 14.1818H180.744C180.631 14.9545 180.349 15.6506 179.901 16.2699C179.457 16.8835 178.869 17.3722 178.136 17.7358C177.409 18.0938 176.563 18.2727 175.597 18.2727ZM189.173 18.2727C187.912 18.2727 186.824 17.9943 185.909 17.4375C185 16.875 184.298 16.0909 183.804 15.0852C183.315 14.0739 183.071 12.8977 183.071 11.5568C183.071 10.2159 183.315 9.03409 183.804 8.01136C184.298 6.98295 184.986 6.18182 185.866 5.60795C186.753 5.02841 187.787 4.73864 188.969 4.73864C189.651 4.73864 190.324 4.85227 190.989 5.07954C191.653 5.30682 192.259 5.67614 192.804 6.1875C193.349 6.69318 193.784 7.36364 194.108 8.19886C194.432 9.03409 194.594 10.0625 194.594 11.2841V12.1364H184.503V10.3977H192.548C192.548 9.65909 192.401 9 192.105 8.42045C191.815 7.84091 191.401 7.38352 190.861 7.0483C190.327 6.71307 189.696 6.54545 188.969 6.54545C188.168 6.54545 187.474 6.74432 186.889 7.14205C186.31 7.53409 185.864 8.04545 185.551 8.67614C185.239 9.30682 185.082 9.98295 185.082 10.7045V11.8636C185.082 12.8523 185.253 13.6903 185.594 14.3778C185.94 15.0597 186.42 15.5795 187.034 15.9375C187.648 16.2898 188.361 16.4659 189.173 16.4659C189.702 16.4659 190.179 16.392 190.605 16.2443C191.037 16.0909 191.409 15.8636 191.722 15.5625C192.034 15.2557 192.276 14.875 192.446 14.4205L194.389 14.9659C194.185 15.625 193.841 16.2045 193.358 16.7045C192.875 17.1989 192.278 17.5852 191.568 17.8636C190.858 18.1364 190.06 18.2727 189.173 18.2727Z" fill="#4C1D95"/>
</svg>
